# xmcd
#
# Track frame offsets: 
#        150
#        15157
#        32247
#        49177
#        62502
#        70945
#        85960
#        91990
#        105447
#        133200
#        142010
#        146957
#        163455
#        184130
#        217150
#        245057
#        284815
#        290000
#
# Disc length: 4029 seconds
#
# Revision: 0
# Processed by: cddbd v1.5.2PL0 Copyright (c) Steve Scherf et al.
# Submitted via: ExactAudioCopy v0.99pb4
#
DISCID=270fbb12
DTITLE=Хор "Православное отечество" - "Всенощное бдение" П. Чесноков с
DTITLE=оч. 44
DYEAR=1969
DGENRE=Chorus
TTITLE0=Благослови, душе моя Господа
TTITLE1=Блажен муж
TTITLE2=Мати убо позналася еси
TTITLE3=Свете тихий
TTITLE4=Господь воцарися
TTITLE5=Ныне отпущаеши
TTITLE6=Богородице Дево радуйся
TTITLE7=Хвалите имя Господне
TTITLE8=Ангельский собор
TTITLE9=От юности моея
TTITLE10=Воскресни Господи
TTITLE11=Воскресение Христово видевше
TTITLE12=Спаси, Боже, люди Твоя
TTITLE13=Манием Твоим, Воскресные ирмосы 7 гласа
TTITLE14=Величит душа моя господа
TTITLE15=Великое славословие
TTITLE16=Днесь спасение миру бысть
TTITLE17=Взбранный воеводе
EXTD=
EXTT0=
EXTT1=
EXTT2=
EXTT3=
EXTT4=
EXTT5=
EXTT6=
EXTT7=
EXTT8=
EXTT9=
EXTT10=
EXTT11=
EXTT12=
EXTT13=
EXTT14=
EXTT15=
EXTT16=
EXTT17=
PLAYORDER=
